[Header]
FileType HTR
DataType HTRS
FileVersion 1
NumSegments 22
NumFrames 4
DataFrameRate 24
EulerRotationOrder ZYX
CalibrationUnits mm
RotationUnits Degrees
GlobalAxisofGravity Y
BoneLengthAxis Y
ScaleFactor 1.0
[SegmentNames&Hierarchy]
reference	GLOBAL
Hips	reference
Spine	Hips
Spine1	Spine
Neck	Spine1
Head	Neck
LeftShoulder	Spine1
LeftArm	LeftShoulder
LeftForeArm	LeftArm
LeftHand	LeftForeArm
RightShoulder	Spine1
RightArm	RightShoulder
RightForeArm	RightArm
RightHand	RightForeArm
LeftUpLeg	Hips
LeftLeg	LeftUpLeg
LeftFoot	LeftLeg
LeftToeBase	LeftFoot
RightUpLeg	Hips
RightLeg	RightUpLeg
RightFoot	RightLeg
RightToeBase	RightFoot
[BasePosition]
reference	0	0	0	0	0	0	1
Hips	0	0	0	0	0	0	1
Spine	0	0	0	-0	-90	0	1
Spine1	0	0	0	0	0	0	1
Neck	0	0	0	82.64767223	-82.64767223	-90	1
Head	0	0	0	-0	-90	0	1
LeftShoulder	0	0	0	0	0	0	1
LeftArm	0	0	0	0	0	0	1
LeftForeArm	0	0	0	0	0	0	1
LeftHand	0	0	0	0	0	0	1
RightShoulder	0	0	0	0	-0	180	1
RightArm	0	0	0	0	-0	180	1
RightForeArm	0	0	0	0	-0	180	1
RightHand	0	0	0	0	-0	180	1
LeftUpLeg	0	0	0	-0	90	0	1
LeftLeg	0	0	0	-0	90	0	1
LeftFoot	0	0	0	-23.42853957	23.42853957	-90	1
LeftToeBase	0	0	0	0	-0	-90	1
RightUpLeg	0	0	0	-0	90	0	1
RightLeg	0	0	0	-0	90	0	1
RightFoot	0	0	0	-23.42853957	23.42853957	-90	1
RightToeBase	0	0	0	0	-0	-90	1
[reference]
37	0	0	0	0	-0	0	1.0
38	0	0	0	0	-0	0	1.0
39	0	0	0	0	-0	0	1.0
40	0	0	0	0	-0	0	1.0
[Hips]
37	3.519020081	-0.9092115164	8.786699295	12.02606964	0.2425082773	-104.1930161	1.0
38	3.446998596	-0.9176965952	8.788032532	10.80619049	-0.1784308255	-103.3773193	1.0
39	3.401779652	-0.9320247173	8.68414402	10.13249683	-0.2600318491	-102.7222824	1.0
40	3.385499954	-0.9646679163	8.536673546	9.734367371	-0.3474951386	-102.196228	1.0
[Spine]
37	0	0	0.7457100153	102.0922699	88.64868164	109.3040924	1.0
38	0	0	0.7457100153	80.07174683	89.3307724	88.4171524	1.0
39	0	0	0.7457100153	24.55998421	89.5287323	33.93104553	1.0
40	0	0	0.7457100153	-10.22054291	89.16584778	-0.10808447	1.0
[Spine1]
37	0	0	2.140589952	-4.557259083	1.694057226	0.3803411424	1.0
38	0	0	2.140589952	-4.504983902	2.063094139	0.1559790224	1.0
39	0	0	2.140589952	-4.235424042	1.818951726	0.01578772627	1.0
40	0	0	2.140589952	-2.927721024	2.374818087	-0.06909815967	1.0
[Neck]
37	0	0	2.32246995	63.1299324	75.25135803	54.26966858	1.0
38	0	0	2.32246995	77.60370636	76.69087982	65.30047607	1.0
39	0	0	2.32246995	78.71266174	77.1307373	65.03752136	1.0
40	0	0	2.32246995	73.1075592	77.27739716	61.55695724	1.0
[Head]
37	0	-0.1818799973	1.409579992	121.7147141	81.41905975	139.2687988	1.0
38	0	-0.1818799973	1.409579992	93.06425476	84.16627502	111.4390945	1.0
39	0	-0.1818799973	1.409579992	110.6509552	83.29060364	128.3421936	1.0
40	0	-0.1818799973	1.409579992	126.0527878	82.4013443	141.8928223	1.0
[LeftShoulder]
37	0.3668199778	0.02662999928	1.946700096	-6.675512791	-1.555117249	-9.954758644	1.0
38	0.3668199778	0.02662999928	1.946700096	-7.497858524	-0.2417931557	-10.41308022	1.0
39	0.3668199778	0.02662999928	1.946700096	-9.242521286	-0.293414861	-10.78070545	1.0
40	0.3668199778	0.02662999928	1.946700096	-12.63148212	-1.338094473	-10.26862907	1.0
[LeftArm]
37	1.140689969	0	0	41.10429001	76.43287659	9.655732155	1.0
38	1.140689969	0	0	46.3752594	76.95326233	8.972156525	1.0
39	1.140689969	0	0	58.88240051	78.23719788	16.40559006	1.0
40	1.140689969	0	0	79.63391113	79.0356369	33.25466919	1.0
[LeftForeArm]
37	2.749800205	0	0	-0.8788039684	-7.225860119	-44.34592438	1.0
38	2.749800205	0	0	-6.260828018	-2.341621637	-23.73497581	1.0
39	2.749800205	0	0	-9.595193863	3.210934639	-11.79081535	1.0
40	2.749800205	0	0	-11.01047039	7.242765903	-3.476306915	1.0
[LeftHand]
37	2.295179844	0	0	-3.65300107	-2.234797716	-8.898564339	1.0
38	2.295179844	0	0	-6.751311302	0.3963627219	-7.460208893	1.0
39	2.295179844	0	0	-9.465319633	3.781057119	-5.330513954	1.0
40	2.295179844	0	0	-10.97390938	8.275912285	-2.64334774	1.0
[RightShoulder]
37	-0.3601199985	0.02662999928	1.946700096	-5.60922718	-1.131500363	-170.7428436	1.0
38	-0.3601199985	0.02662999928	1.946700096	-6.45055151	-0.9601444006	-170.9164886	1.0
39	-0.3601199985	0.02662999928	1.946700096	-8.015138626	-0.4451323152	-170.3891907	1.0
40	-0.3601199985	0.02662999928	1.946700096	-10.13550377	0.01927847415	-170.4249725	1.0
[RightArm]
37	-1.140689969	0	0	-144.5924072	-99.87818146	17.70713806	1.0
38	-1.140689969	0	0	-146.2487946	-98.50286102	24.99741745	1.0
39	-1.140689969	0	0	-129.5112152	-97.16279602	9.136219978	1.0
40	-1.140689969	0	0	-104.1147766	-96.68804169	-18.0247097	1.0
[RightForeArm]
37	-2.749800205	0	0	9.376251221	12.51407814	-146.9963837	1.0
38	-2.749800205	0	0	4.780874252	1.898493171	-163.9589386	1.0
39	-2.749800205	0	0	5.628396034	-3.512756586	-171.6408386	1.0
40	-2.749800205	0	0	5.56776762	-5.314547062	-176.6125183	1.0
[RightHand]
37	-2.295179844	0	0	6.252090931	6.375980854	-169.3099823	1.0
38	-2.295179844	0	0	4.626400471	0.6216444969	-171.9348145	1.0
39	-2.295179844	0	0	5.51269865	-7.926862717	-174.331543	1.0
40	-2.295179844	0	0	5.478115559	-13.64777946	-177.9028473	1.0
[LeftUpLeg]
37	0.9094099998	0	0	-36.23124695	-97.57636261	25.31707764	1.0
38	0.9094099998	0	0	-47.2412796	-98.62376404	41.75797653	1.0
39	0.9094099998	0	0	-53.78022385	-100.3677597	51.42065811	1.0
40	0.9094099998	0	0	-58.89083862	-101.2102203	57.97780991	1.0
[LeftLeg]
37	0	0	-4.498080254	-60.77147675	-84.94927216	69.53636169	1.0
38	0	0	-4.498080254	-68.16997528	-86.1124115	70.58963013	1.0
39	0	0	-4.498080254	-67.31053162	-86.61684418	66.53871155	1.0
40	0	0	-4.498080254	-38.71251678	-88.79846954	36.19683075	1.0
[LeftFoot]
37	0	0	-3.729400158	-33.24355698	-2.236880541	96.19489288	1.0
38	0	0	-3.729400158	-31.28131294	-1.110373855	96.81801605	1.0
39	0	0	-3.729400158	-34.20697784	-2.710446358	97.86320496	1.0
40	0	0	-3.729400158	-40.16845703	-5.212035656	100.7861557	1.0
[LeftToeBase]
37	0	-1.364109993	-0.5911099911	9.999999975e-007	0	0	1.0
38	0	-1.364109993	-0.5911099911	9.999999975e-007	0	0	1.0
39	0	-1.364109993	-0.5911099911	9.999999975e-007	0	0	1.0
40	0	-1.364109993	-0.5911099911	9.999999975e-007	0	0	1.0
[RightUpLeg]
37	-0.9094099998	0	0	-104.4190674	-105.6394119	92.60837555	1.0
38	-0.9094099998	0	0	-109.795578	-104.8121948	102.8100891	1.0
39	-0.9094099998	0	0	-116.9039612	-101.7692795	112.5877686	1.0
40	-0.9094099998	0	0	-125.7923431	-99.40374756	122.5472488	1.0
[RightLeg]
37	0	0	-4.498080254	-1.116811395	-88.61416626	2.867650032	1.0
38	0	0	-4.498080254	-40.48719406	-91.24581146	37.02500916	1.0
39	0	0	-4.498080254	-72.11425781	-94.15666199	66.24594116	1.0
40	0	0	-4.498080254	-76.12820435	-95.12960815	69.56348419	1.0
[RightFoot]
37	0	0	-3.729400158	-25.87855721	-32.77906799	96.02516937	1.0
38	0	0	-3.729400158	-22.99643326	-32.73753357	94.01335144	1.0
39	0	0	-3.729400158	-25.43726158	-32.16104507	92.72882843	1.0
40	0	0	-3.729400158	-30.46763802	-30.43750763	90.41588593	1.0
[RightToeBase]
37	0	-1.364109993	-0.5911099911	9.999999975e-007	0	0	1.0
38	0	-1.364109993	-0.5911099911	9.999999975e-007	0	0	1.0
39	0	-1.364109993	-0.5911099911	9.999999975e-007	0	0	1.0
40	0	-1.364109993	-0.5911099911	9.999999975e-007	0	0	1.0
[EndOfFile]
